<svg viewBox="0 0 20 20" style="width:100%;height:100%;image-rendering:pixelated"><rect x="6" y="1" width="8" height="1" fill="#C47A3A"/><rect x="4" y="2" width="12" height="1" fill="#C47A3A"/><rect x="3" y="3" width="14" height="1" fill="#B5692F"/><rect x="2" y="4" width="16" height="1" fill="#C47A3A"/><rect x="2" y="5" width="16" height="1" fill="#D4894A"/><rect x="1" y="6" width="18" height="1" fill="#C47A3A"/><rect x="1" y="7" width="18" height="1" fill="#B5692F"/><rect x="1" y="8" width="18" height="1" fill="#C47A3A"/><rect x="1" y="9" width="18" height="1" fill="#D4894A"/><rect x="1" y="10" width="18" height="1" fill="#C47A3A"/><rect x="1" y="11" width="18" height="1" fill="#B5692F"/><rect x="1" y="12" width="18" height="1" fill="#C47A3A"/><rect x="2" y="13" width="16" height="1" fill="#C47A3A"/><rect x="2" y="14" width="16" height="1" fill="#B5692F"/><rect x="3" y="15" width="14" height="1" fill="#C47A3A"/><rect x="4" y="16" width="12" height="1" fill="#B5692F"/><rect x="6" y="17" width="8" height="1" fill="#A05A25"/><rect x="5" y="4" width="2" height="2" fill="#4A2010"/><rect x="10" y="3" width="2" height="2" fill="#5C2D18"/><rect x="14" y="5" width="2" height="2" fill="#4A2010"/><rect x="4" y="8" width="2" height="2" fill="#5C2D18"/><rect x="9" y="7" width="2" height="2" fill="#4A2010"/><rect x="13" y="10" width="2" height="2" fill="#5C2D18"/><rect x="5" y="12" width="2" height="2" fill="#4A2010"/><rect x="10" y="13" width="2" height="2" fill="#5C2D18"/></svg>
